<svg width="46" height="35" viewBox="0 0 46 35" fill="none" xmlns="http://www.w3.org/2000/svg">
<path d="M6.50445 1.02711C5.98307 1.26031 5.57465 1.66625 5.32265 2.18447C5.13147 2.58178 5.11409 2.72861 5.11409 3.97234V5.31972L3.6629 5.35426C2.35944 5.38017 2.16827 5.40609 1.84675 5.57019C1.38619 5.81203 0.98646 6.20933 0.743146 6.66709L0.551972 7.02121L0.525902 16.3233C0.508523 25.5476 0.508523 25.6254 0.682318 26.1004C0.812664 26.4373 0.986459 26.6877 1.30798 26.9641C1.87281 27.4737 2.35944 27.6205 3.51518 27.6205H4.41022L4.43629 30.7817L4.46236 33.9428L4.70568 34.1501C4.87947 34.297 5.05327 34.3574 5.29658 34.3574C5.64417 34.3574 6.55659 33.701 13.4649 28.4842L14.612 27.6205H25.7696H36.9273L38.2916 28.6397C39.0389 29.2011 39.7428 29.7107 39.847 29.7625C40.0904 29.8921 40.325 29.8921 40.6117 29.7625C41.0723 29.5552 41.0897 29.4429 41.0897 26.1177V23.0602L42.2454 23.0256C43.3577 22.9997 43.4272 22.9911 43.8356 22.7406C44.2962 22.4556 44.7654 21.8424 44.9132 21.3328C44.9653 21.1255 45.0001 17.8521 45.0001 11.9357C45.0001 1.89081 45.0261 2.3313 44.4352 1.64898C44.2701 1.45033 43.9312 1.19122 43.6792 1.07029L43.2274 0.845734H25.0658C6.98239 0.845734 6.89549 0.85437 6.50445 1.02711ZM43.0883 2.74588C43.2621 2.91862 43.2621 3.0309 43.2621 11.9184C43.2534 19.8127 43.2361 20.9441 43.1231 21.0996C43.0014 21.255 42.8624 21.2723 41.4286 21.3155L39.8557 21.3587L39.6037 21.6437L39.3517 21.9201V24.5976V27.2837L37.7615 26.0831C32.4694 22.0928 31.5309 21.4105 31.2529 21.3587C31.0965 21.3328 28.7068 21.3155 25.9434 21.3328L20.9121 21.3587L20.6601 21.6437C20.3125 22.0237 20.3125 22.447 20.6601 22.7924L20.9121 23.0429H25.8826H30.8445L32.7041 24.4421L34.5637 25.8499L24.2489 25.8931C18.5745 25.919 13.9255 25.945 13.9255 25.9622C13.9168 25.9709 12.1789 27.2837 10.0586 28.8729L6.20031 31.7749L6.15686 29.1147C6.11342 26.3509 6.08735 26.1695 5.72238 25.9795C5.63548 25.9277 4.93161 25.8931 4.11477 25.8931C2.69834 25.8931 2.67227 25.8931 2.46372 25.6772L2.24647 25.4699V16.4788V7.48761L2.46372 7.28032C2.66358 7.07303 2.71572 7.0644 3.88884 7.0644H5.11409L5.13147 14.2504C5.15754 20.9441 5.16623 21.4623 5.31396 21.7214C5.58334 22.2138 6.00914 22.6283 6.46101 22.8356C6.89549 23.0429 6.91287 23.0429 10.3453 23.0429H13.7952L14.0211 22.8443C14.1688 22.7233 14.2644 22.5333 14.2992 22.3001C14.3426 21.9892 14.3079 21.9028 14.0819 21.6523L13.8212 21.3587L10.4583 21.3155C7.26046 21.2723 7.09536 21.2637 6.9737 21.1082C6.86942 20.9614 6.85204 19.5708 6.85204 11.9443C6.85204 3.94643 6.86942 2.93589 6.99108 2.76315L7.12143 2.57314H25.0223C42.8016 2.57314 42.9145 2.57314 43.0883 2.74588Z" fill="black" stroke="white" stroke-width="0.6"/>
<path d="M33.0605 5.47515C30.5579 6.07975 28.7678 8.74859 28.9503 11.5988C29.1502 14.6563 31.4356 17.0229 34.1815 17.0229C35.0244 17.0229 35.624 16.8674 36.4756 16.4269L37.2056 16.0382L38.1354 16.9538C38.9696 17.7656 39.0999 17.8607 39.378 17.8607C39.9689 17.8607 40.4642 17.1956 40.2209 16.7206C40.1601 16.6083 39.7256 16.1246 39.239 15.6409L38.37 14.76L38.6741 14.1726C39.7951 12.0566 39.6474 9.50001 38.3178 7.6085C37.0578 5.82927 35.0244 5.00012 33.0605 5.47515ZM35.4937 7.3753C37.2925 8.22173 38.1701 10.7092 37.4141 12.7907C37.2925 13.1189 37.1708 13.4039 37.1447 13.4385C37.11 13.4644 36.7276 13.1362 36.2844 12.6957C35.2764 11.6938 34.8593 11.5556 34.364 12.0479C34.1902 12.212 34.1381 12.3589 34.1381 12.6266C34.1381 12.9548 34.1902 13.0326 35.0157 13.8531C35.5024 14.3367 35.876 14.7772 35.8413 14.8204C35.7109 15.0277 34.7898 15.2868 34.1815 15.2868C33.0605 15.2868 32.0438 14.6909 31.366 13.6458C30.1408 11.737 30.6274 8.85223 32.3741 7.65169C33.3125 7.01255 34.503 6.9089 35.4937 7.3753Z" fill="black" stroke="white" stroke-width="0.6"/>
<path d="M10.4063 6.2783L10.1543 6.52878V11.9442V17.3596L10.4063 17.6101C10.7539 17.9556 11.1797 17.9556 11.562 17.6101L11.8488 17.3596L11.8749 14.8031L11.9009 12.2465H14.3254C15.8808 12.2465 16.828 12.2119 16.9584 12.1515C17.4798 11.9183 17.5753 11.1841 17.1409 10.7696L16.9149 10.5623L14.4036 10.5364L11.8922 10.5104V9.13716V7.76387L14.4036 7.73796L16.9149 7.71205L17.1409 7.50476C17.5493 7.12473 17.5232 6.53742 17.0713 6.1833C16.9062 6.0451 16.5934 6.02783 13.7779 6.02783H10.6583L10.4063 6.2783Z" fill="black" stroke="white" stroke-width="0.6"/>
<path d="M22.3455 6.18347C22.137 6.33893 17.8008 16.4097 17.8008 16.7379C17.8008 17.0229 18.0006 17.3511 18.244 17.4807C18.774 17.7485 19.2433 17.5498 19.5214 16.9366C19.6256 16.712 19.9385 15.9779 20.2252 15.3128L20.7292 14.1036L22.8495 14.0777L24.9698 14.0604L25.6476 15.6583C26.3863 17.3771 26.5514 17.6016 27.0728 17.6016C27.4899 17.6016 27.8809 17.213 27.8809 16.7897C27.8809 16.3406 23.7011 6.48576 23.397 6.21802C23.1276 5.98482 22.6236 5.96754 22.3455 6.18347ZM23.6142 10.8647L24.2138 12.2898L22.9104 12.3158C22.1891 12.3244 21.5808 12.3158 21.5548 12.2985C21.52 12.2639 21.8415 11.4866 22.7366 9.39644C22.8495 9.12006 22.8669 9.11142 22.9364 9.26689C22.9799 9.3619 23.284 10.0788 23.6142 10.8647Z" fill="black" stroke="white" stroke-width="0.6"/>
<path d="M17.0539 21.4019C16.489 21.6351 16.3239 22.3692 16.7497 22.7924C17.3928 23.4229 18.4529 22.7924 18.1748 21.9547C18.0358 21.5314 17.4449 21.2378 17.0539 21.4019Z" fill="black" stroke="white" stroke-width="0.6"/>
</svg>
